<?xml version="1.0" encoding="UTF-8" standalone="no"?>
<svg xmlns="http://www.w3.org/2000/svg" xmlns:xlink="http://www.w3.org/1999/xlink" xml:space="preserve" width="224.78665mm" height="210.77837mm" viewBox="0 0 224.78665 210.77837">
  <defs>
    <linearGradient id="l">
      <stop offset="0" stop-color="#ed1b24" stop-opacity="0"/>
      <stop offset=".59565085" stop-color="#d6191f"/>
      <stop offset="1" stop-color="#ad151f"/>
    </linearGradient>
    <linearGradient id="j">
      <stop offset="0" stop-color="#ec1a23" stop-opacity="0"/>
      <stop offset=".34773171" stop-color="#d61a20"/>
      <stop offset=".66855752" stop-color="#c3161c"/>
      <stop offset="1" stop-color="#aa181d"/>
    </linearGradient>
    <linearGradient id="h">
      <stop offset="0" stop-color="#fdf003"/>
      <stop offset=".29923612" stop-color="#ffef01"/>
      <stop offset=".44885418" stop-color="#ffec01"/>
      <stop offset=".7244271" stop-color="#fdd704"/>
      <stop offset="1" stop-color="#ffc109"/>
    </linearGradient>
    <linearGradient id="b">
      <stop offset=".08611113" stop-color="#e91e24"/>
      <stop offset=".22395834" stop-color="#ed1b24"/>
      <stop offset=".4201389" stop-color="#ed1b24"/>
      <stop offset=".54027778" stop-color="#ed1b24"/>
      <stop offset=".66180551" stop-color="#ed1b24"/>
      <stop offset=".7697916" stop-color="#ed1b24"/>
      <stop offset=".83841139" stop-color="#eb1c24"/>
      <stop offset=".90703118" stop-color="#eb1c24"/>
      <stop offset=".94999993" stop-color="#d21921"/>
    </linearGradient>
    <linearGradient id="k">
      <stop offset="0" stop-color="#fce401"/>
      <stop offset=".30819443" stop-color="#ffe301"/>
      <stop offset=".61638886" stop-color="#ffc00f"/>
      <stop offset=".77999997" stop-color="#fdb016"/>
    </linearGradient>
    <linearGradient id="g">
      <stop offset="0" stop-color="#ffd205" stop-opacity=".07177033"/>
      <stop offset=".25" stop-color="#ffd504"/>
      <stop offset=".375" stop-color="#fecc0b"/>
      <stop offset=".5" stop-color="#ffc012"/>
      <stop offset=".75547945" stop-color="#faa41d"/>
      <stop offset="1" stop-color="#f68e1d"/>
    </linearGradient>
    <linearGradient id="f">
      <stop offset="0" stop-color="#ffa821"/>
      <stop offset=".25" stop-color="#fcad1c"/>
      <stop offset=".5" stop-color="#fea81f"/>
      <stop offset=".69583333" stop-color="#fba61f"/>
      <stop offset=".89166665" stop-color="#f98a2a"/>
    </linearGradient>
    <linearGradient id="e">
      <stop offset="0" stop-color="#fac511"/>
      <stop offset=".08472222" stop-color="#fecd0f"/>
      <stop offset=".16944444" stop-color="#fbd20a"/>
      <stop offset=".33888888" stop-color="#ffd10d"/>
      <stop offset=".66944444" stop-color="#febe16"/>
      <stop offset="1" stop-color="#fcaa29"/>
    </linearGradient>
    <linearGradient id="d">
      <stop offset="0" stop-color="#fdab19"/>
      <stop offset=".16944444" stop-color="#f8a61b"/>
      <stop offset=".33888888" stop-color="#f6961e"/>
      <stop offset=".50416666" stop-color="#f68e1c"/>
      <stop offset=".66944444" stop-color="#f68a1e"/>
      <stop offset=".83472222" stop-color="#f68a1e"/>
      <stop offset="1" stop-color="#fb8c2f"/>
    </linearGradient>
    <linearGradient id="c">
      <stop offset=".30000001" stop-color="#ed1b24"/>
      <stop offset=".78055555" stop-color="#ed1b24"/>
    </linearGradient>
    <linearGradient id="i">
      <stop offset="0" stop-color="#f9d331"/>
      <stop offset="1" stop-color="#fe9f1c"/>
    </linearGradient>
    <linearGradient id="a">
      <stop offset="0" stop-color="#c81417"/>
      <stop offset=".25" stop-color="#c8141f"/>
      <stop offset=".5" stop-color="#b6161b"/>
      <stop offset=".75" stop-color="#a50917"/>
      <stop offset="1" stop-color="#870704"/>
    </linearGradient>
    <linearGradient xlink:href="#a" id="C" x1="125.73794" x2="125.73794" y1="23.079981" y2="68.642059" gradientTransform="matrix(2.52683 0 -.59528 2.52683 -191.7341 -7.3093112)" gradientUnits="userSpaceOnUse"/>
    <linearGradient xlink:href="#b" id="v" x1="22.165083" x2="111.125" y1="122.04681" y2="122.04681" gradientTransform="translate(-72.38682 -202.79485) scale(2.52683)" gradientUnits="userSpaceOnUse"/>
    <linearGradient xlink:href="#c" id="m" x1="22.165083" x2="111.125" y1="122.04681" y2="122.04681" gradientUnits="userSpaceOnUse"/>
    <linearGradient xlink:href="#c" id="n" x1="22.165083" x2="111.125" y1="122.04681" y2="122.04681" gradientUnits="userSpaceOnUse"/>
    <linearGradient xlink:href="#d" id="t" x1="30.570583" x2="103.09817" y1="149.04214" y2="149.04214" gradientTransform="translate(-72.38682 -202.79485) scale(2.52683)" gradientUnits="userSpaceOnUse"/>
    <linearGradient xlink:href="#e" id="u" x1="31.235819" x2="101.22305" y1="98.149338" y2="98.149338" gradientTransform="translate(-72.38682 -202.79485) scale(2.52683)" gradientUnits="userSpaceOnUse"/>
    <linearGradient xlink:href="#f" id="s" x1="33.353764" x2="102.88881" y1="142.79951" y2="142.79951" gradientTransform="translate(-72.38682 -202.79485) scale(2.52683)" gradientUnits="userSpaceOnUse"/>
    <linearGradient xlink:href="#g" id="r" x1="48.167622" x2="96.760277" y1="146.75328" y2="146.75328" gradientTransform="translate(-72.38682 -202.79485) scale(2.52683)" gradientUnits="userSpaceOnUse"/>
    <radialGradient xlink:href="#h" id="q" cx="55.148628" cy="67.698914" r="90.153412" fx="55.148628" fy="67.698914" gradientTransform="matrix(.42115 1.57174 -1.71987 .46084 120.9253 -86.842228)" gradientUnits="userSpaceOnUse"/>
    <radialGradient xlink:href="#i" id="o" cx="178.53517" cy="31.466002" r="23.702326" fx="178.53517" fy="31.466002" gradientTransform="matrix(.31088 .53846 -.647 .37355 143.39069 -65.982795)" gradientUnits="userSpaceOnUse"/>
    <radialGradient xlink:href="#j" id="w" cx="102.83224" cy="120.66957" r="8.2927618" fx="102.83224" fy="120.66957" gradientTransform="matrix(1 0 0 4.1848 -.00004833 -387.5)" gradientUnits="userSpaceOnUse"/>
    <radialGradient xlink:href="#k" id="p" cx="10.19479" cy="139.05705" r="90.153412" fx="10.19479" fy="139.05705" gradientTransform="matrix(0 .81426 -1.9559 0 286.2659 156.75534)" gradientUnits="userSpaceOnUse"/>
    <radialGradient xlink:href="#l" id="z" cx="32.080818" cy="121.97935" r="7.7247119" fx="32.080818" fy="121.97935" gradientTransform="matrix(1.34148 0 0 3.86727 -10.296544 -349.6807)" gradientUnits="userSpaceOnUse"/>
    <clipPath id="A" clipPathUnits="userSpaceOnUse">
      <path fill="url(#m)" stroke-width="2.2" d="M104.84115 96.550697v.001058c-.13794 1.308825-.88535 2.293184-1.69809 2.907316-1.29248.976649-2.30671 1.233129-3.97702 1.768889-2.001534.642-6.524863 1.58699-13.085506 1.76062-23.328863 0-30.260502-4.539265-45.979623-4.539265-3.065645 0-6.687174.52696-8.865092 1.784395-2.997827 1.73078-3.596034 3.02736-4.929931 5.18262-2.667794 4.31057-4.011825 10.27645-4.129981 16.89251-.15958 8.93576 1.466199 15.68421 3.488676 19.93212 1.271379 2.67033 2.340258 4.31605 3.377573 5.302-.0186-1.26706.596011-2.86522 2.182294-4.11137.893308-.70178 2.05876-1.30096 3.260783-1.63556 2.270107-.63191 5.396469-.7705 6.458003-.7705 14.797392 0 29.122376 2.91558 44.293938 2.91558 7.585673 0 14.262233-1.22736 20.001366-6.9665 1.38364-1.38362 2.69127-3.18486 4.01577-7.97367 1.0343-3.73957 1.87069-8.16845 1.87069-12.98993 0-4.80173-.79656-8.56137-2.27428-12.73308-.43326-1.22312-1.69143-3.794491-2.25051-4.650357-.62904-.962972-1.17978-1.631675-1.75906-2.076876z" paint-order="fill markers stroke"/>
    </clipPath>
    <clipPath id="x" clipPathUnits="userSpaceOnUse">
      <path fill="url(#n)" stroke-width="2.2" d="M104.84115 96.550697v.001058c-.13794 1.308825-.88535 2.293184-1.69809 2.907316-1.29248.976649-2.30671 1.233129-3.97702 1.768889-2.001534.642-6.524863 1.58699-13.085506 1.76062-23.328863 0-30.260502-4.539265-45.979623-4.539265-3.065645 0-6.687174.52696-8.865092 1.784395-2.997827 1.73078-3.596034 3.02736-4.929931 5.18262-2.667794 4.31057-4.011825 10.27645-4.129981 16.89251-.15958 8.93576 1.466199 15.68421 3.488676 19.93212 1.271379 2.67033 2.340258 4.31605 3.377573 5.302-.0186-1.26706.596011-2.86522 2.182294-4.11137.893308-.70178 2.05876-1.30096 3.260783-1.63556 2.270107-.63191 5.396469-.7705 6.458003-.7705 14.797392 0 29.122376 2.91558 44.293938 2.91558 7.585673 0 14.262233-1.22736 20.001366-6.9665 1.38364-1.38362 2.69127-3.18486 4.01577-7.97367 1.0343-3.73957 1.87069-8.16845 1.87069-12.98993 0-4.80173-.79656-8.56137-2.27428-12.73308-.43326-1.22312-1.69143-3.794491-2.25051-4.650357-.62904-.962972-1.17978-1.631675-1.75906-2.076876z" paint-order="fill markers stroke"/>
    </clipPath>
    <filter id="B" width="1.2164789" height="1.0834043" x="-.10823943" y="-.04170215" color-interpolation-filters="sRGB">
      <feGaussianBlur stdDeviation="1.3256959"/>
    </filter>
    <filter id="y" width="1.2800708" height="1.1058824" x="-.1400354" y="-.05294118" color-interpolation-filters="sRGB">
      <feGaussianBlur stdDeviation="1.3784032"/>
    </filter>
  </defs>
  <g paint-order="fill markers stroke">
    <path fill="#fdaa1c" d="M47.449364 153.55162c-2.682332 0-10.582064.35016-16.318273 1.94689-3.037326.84548-5.9822214 2.35951-8.2394646 4.13279-4.0082611 3.14886-5.56125135 7.18711-5.51427756 10.38876 3.85445296 3.6636 7.53713196 3.72169 12.42053616 3.09991 0 0 7.118234-19.56835 17.651479-19.56835z"/>
    <path fill="url(#o)" d="M186.58655 39.305322c-4.88861 0-5.42586 1.570046-8.05138 2.599806-14.32756 5.69305-20.24962 14.740656-33.41079 15.532388 16.57765-.438734 28.00709-2.82674 33.06461-4.448966 4.22058-1.353775 6.78337-2.002008 10.04925-4.469822 2.05366-1.551828 3.94224-4.039114 4.29079-7.346306-1.72825-1.328203-3.55849-1.865938-5.9426-1.865938z" transform="translate(16.379408)"/>
    <path fill="url(#p)" d="M187.36474 148.70462c-13.05625 9.90701-27.86039 12.21527-44.37145 12.21527-38.33589 0-74.532964-7.36699-111.923398-7.36699-2.682316 0-10.58222.34992-16.318384 1.94665-2.800983.77968-5.5166258 2.13109-7.6935869 3.72691a102.6079 102.6079 0 0 0 87.2913129 48.7717 102.6079 102.6079 0 0 0 93.015506-59.29354z" color="#000" transform="translate(16.379408)"/>
    <path fill="url(#q)" d="M94.349234 2.7827759A102.6079 102.6079 0 0 0 8.2371773 49.617126c5.5658197-2.554395 13.7037717-3.647322 20.7041627-3.647322 39.719484 0 57.234607 11.470101 116.18257 11.470101 16.57761-.438733 28.00764-2.8266 33.06517-4.448824 1.37105-.439769 2.55661-.805466 3.65869-1.182874A102.6079 102.6079 0 0 0 94.349234 2.7827759Z" color="#000" transform="translate(16.379408)"/>
    <path fill="url(#r)" d="M166.71779 178.1299s-12.11231 4.37227-24.21396 4.50478c-16.67585.18269-27.86145-2.91475-42.19217-6.88428-16.50907-4.57293-50.612871-14.89134-50.612871-14.89134l1.007549-2.86308 83.679012 2.80294 46.68773-.86044z" transform="translate(16.379408)"/>
    <path fill="url(#s)" d="M14.285457 165.0566c2.475158-2.65744 9.298788-7.62683 24.41285-7.62683 33.200434 0 60.166419 16.37965 107.449693 16.37965 12.1208 0 25.96202-5.78356 25.96202-5.78356l5.96446-3.31998 5.99724-9.53479 3.52407-6.63627-.43661-6.27351-165.943055.98811-16.3562518 12.34127 1.6523452 4.03932 4.9630746 6.2609z" transform="translate(16.379408)"/>
    <path fill="url(#t)" d="M192.16731 144.64342c-3.04369 2.86662-6.19207 5.24566-9.43946 7.22485-16.70985 31.73007-49.99951 53.3488-88.378826 53.3488-35.955418 0-67.443543-18.97365-85.0177695-47.45975-1.0162788.57359-1.9669155 1.20558-2.81917 1.87511-.5949423.46737-1.1296096.95631-1.6191629 1.45723 18.6196474 29.82618 51.7307124 49.68871 89.4561024 49.68871 44.299356 0 82.240036-27.38466 97.818286-66.13495z" color="#000" transform="translate(16.379408)"/>
    <path fill="url(#u)" d="M94.349024-.00000122C55.37111-.00000122 21.31502 21.202775 3.083117 52.69329c.9977343-.71666 2.1301335-1.448152 3.4576925-2.21459 1.7233163-.994978 3.8039545-1.808723 6.0875295-2.457482C30.68485 22.337547 60.542643 5.5626045 94.349024 5.5626045c35.810686 0 67.189986 18.8237975 84.804926 47.1202245 2.03635-.644569 3.7427-1.181546 5.32758-1.907732C165.9931 20.344075 132.53075-.00000122 94.349024-.00000122Z" color="#000" transform="translate(16.379408)"/>
    <path fill="url(#v)" d="M192.52903 41.172422v.0026c-.34855 3.307179-2.23713 5.794483-4.29079 7.346295-3.26588 2.467817-5.82867 3.115898-10.04926 4.469673-5.05753 1.622226-16.48722 4.010056-33.06486 4.448789-58.948082 0-76.463161-11.469947-116.182723-11.469947-7.746366 0-16.89736 1.331541-22.4005875 4.508857-7.5750041 4.373388-9.0865669 7.649626-12.4571015 13.095604-6.741064 10.892081-10.137203 25.96685-10.435763 42.684517-.403232 22.57915 3.704837 39.63134 8.8152938 50.36509 3.2125596 6.74748 5.913436 10.90593 8.53455295 13.39726-.0469738-3.20165 1.50602405-7.23993 5.51429275-10.38874 2.2572331-1.77328 5.2021335-3.2873 8.2394465-4.13278 5.736177-1.59673 13.635959-1.94692 16.318281-1.94692 37.390506 0 73.587318 7.36717 111.923288 7.36717 19.16771 0 36.03824-3.10133 50.54006-17.60316 3.49623-3.49618 6.80039-8.0476 10.14718-20.14812 2.6135-9.44918 4.72691-20.64021 4.72691-32.823278 0-12.133159-2.01277-21.633133-5.74672-32.174339-1.09477-3.090617-4.27396-9.588034-5.68666-11.750667-1.58947-2.433268-2.9811-4.122967-4.44484-5.247915z" transform="translate(16.379408)"/>
    <path fill="url(#w)" d="M104.303 98.17107s3.16065 8.26054 3.16065 20.68212c0 17.3424-7.23351 20.77355-9.479815 23.01986l13.141165 7.79788 9.54719-30.40191.93544-23.457234-13.91422-8.628467-8.390368 9.657347z" clip-path="url(#x)" filter="url(#y)" style="mix-blend-mode:normal" transform="translate(-56.007408 -202.79494) scale(2.52683)"/>
    <path fill="url(#z)" d="M35.936059 98.768552s-8.068423 8.112098-8.068423 23.197288c0 11.81498 4.41897 20.66547 4.41897 20.66547l-3.320381 22.5533-22.4249088-24.15955.6575641-25.59312L18.746626 88.889505Z" clip-path="url(#A)" filter="url(#B)" style="mix-blend-mode:normal" transform="translate(-56.007412 -202.79485) scale(2.52683)"/>
    <path fill="url(#C)" d="M164.90739 51.009896c-2.07852 0-4.79125 1.259746-5.52408 4.370431-.99125 4.207727 1.81009 6.999451 1.06238 10.173302-.21832.926867-.64098 1.080094-.72674 1.444185-.0773.328336.69359.629383 1.39122.629383 4.91236 0 9.49876-5.231854 9.30877-11.101705-.0298-.917318-.22615-2.327979-1.19355-3.469445-1.15186-1.359397-2.45153-2.046151-4.318-2.046151zM19.485093 53.163119s.859628 3.637224-.27598 8.593315L3.7179699 129.35906c-3.80386584 16.60108-5.176314 18.34747-5.176314 18.34747s8.8761249-1.41548 21.6097631-1.41548c15.309208 0 25.481244 1.8268 32.870859 1.8268 3.536704 0 7.294253-.50658 10.570315-2.46662 3.551056-2.12461 6.756771-6.15263 5.480746-13.50955-2.908635 2.35403-7.501023 3.37282-12.190089 3.37282-8.960167 0-17.608902-1.20654-26.569044-1.20654-3.168267 0-5.05821.0854-8.102637.43351l17.67172-75.012909c.875622-3.716854-1.156935-6.438026-4.839361-6.462284zM67.123359 67.53709c-12.288636 0-23.294651 12.75625-27.431351 30.865946-1.346372 5.894184-1.930524 15.185544-.303624 19.945714 2.263661 6.62336 7.261909 9.38819 13.1424 9.446 6.100654.0599 10.009864-1.84693 12.860938-4.25291 2.875255-2.42636 4.075677-4.8833 4.920548-6.08754 1.229278 7.17193 5.719001 10.28395 11.599492 10.34174 6.100629.0599 8.871552-1.73204 11.722651-4.13799 2.506464-2.11516 3.893694-4.6099 4.755773-5.92039 1.462732 8.04788 6.881444 10.00107 12.713494 10.05838 6.10066.0599 10.03996-2.90297 12.09031-4.56237 2.14035-1.73227 3.24268-3.65324 4.08755-4.85748l-2.88084 12.22858s-10.38295 3.32947-17.7452 6.69994c-9.470764 4.33579-18.498777 9.89325-20.051792 16.48542-1.131843 4.80452 1.141243 12.34744 16.730042 12.34744 8.89003 0 16.81652-3.00825 23.12124-8.56851 5.3119-4.68467 10.95722-13.54291 13.38662-23.85523l15.23873-64.685531H141.9129c-1.66796 0-3.43662.559137-4.09918 3.3715l-7.125 30.244391c-1.38599 5.88322-3.89979 9.5964-6.07683 11.52218-2.37052 2.09691-4.14784 2.2368-5.77744 2.2368-1.5158 0-2.75842-.43151-3.60602-1.65965-.84762-1.22817-1.16176-3.84273-.55017-6.43879l9.2525-39.275117h-13.05664c-1.66796 0-3.57764.557823-4.2402 3.370186l-8.310872 35.278171c-.657026 2.78894-2.249056 4.99441-3.695389 6.46619-1.721429 1.75167-3.517348 2.25901-4.923757 2.25901-3.031565-.00003-5.157161-1.72684-3.656097-8.09844l9.252497-39.275117H83.578359c-1.667961 0-3.436313.557823-4.098874 3.370186l-.745693 3.165209s-1.162316-8.027918-11.610459-8.027918zm113.719511.124067c-13.64092 0-20.23625 7.67957-21.53524 13.193569-1.21035 5.137679-.7511 7.67866.36775 10.926724 1.11881 3.24809 2.97542 4.922519 5.66208 8.25773 1.50715 1.87097 11.87504 9.88701 10.75335 14.64819-.37677 1.59944-.67153 2.5781-2.19192 3.56218-.77048.49869-2.47207 1.01589-3.98034 1.01589-5.81489 0-8.54718-3.70709-13.27481-3.70709-5.42445 0-7.62918 6.43877-7.62918 6.43877s1.51233 1.56271 4.63959 2.86487c3.91676 1.63091 7.5479 2.86487 13.33085 2.86487 4.07449 0 8.40937-.26772 13.42323-2.74866 2.17416-1.0758 4.18517-2.54028 5.83574-4.51275 2.24479-2.68258 2.94121-4.45346 3.67349-7.56177 1.37555-5.83905-.72867-12.2506-8.19851-18.852782-5.80979-5.134924-9.76466-9.389274-8.75216-13.687135.71242-3.024136 3.41706-4.286869 5.5279-4.286869 4.60434 0 7.00533 2.751263 10.99937 2.751263 5.70417 0 7.66279-4.325454 8.30986-7.072068 0 0-1.60954-1.023746-4.55666-2.047466-4.55453-1.582074-7.0544-2.047466-12.40439-2.047466zM69.705173 76.72586c4.3297 0 6.855772 5.119586 3.388202 19.838654-3.830902 16.261446-8.86157 19.838676-12.939167 19.838656-4.32975 0-7.745141-2.90525-3.440483-19.838656 2.99432-11.779227 8.497101-19.838654 12.991448-19.838654zm53.065547 60.55406-.53524 2.27205c-.68042 2.88817-2.14335 8.67774-4.53657 12.4336-2.08804 3.27705-5.88761 6.45183-10.99982 6.45183-2.41217 0-4.1979-.67256-5.28891-1.75496-1.09096-1.08239-1.3705-2.95118-1.07246-4.21634 1.00315-4.25809 6.00908-7.39864 11.90539-10.39528 5.3634-2.72582 10.52761-4.7909 10.52761-4.7909z" transform="translate(16.379408)"/>
    <path fill="#fff" d="M179.745988 49.392706c-2.07852 0-4.79125 1.259747-5.52408 4.370432-.99128 4.207727 1.81007 6.999443 1.06238 10.173294-.21832.926867-.64101 1.080094-.72679 1.444185-.0773.328336.69364.629383 1.39127.629383 4.91236 0 9.49873-5.231854 9.30877-11.101697-.0298-.917318-.22615-2.327979-1.19355-3.469445-1.15186-1.359397-2.45153-2.046152-4.318-2.046152zM34.32369 51.54593s.859628 3.637224-.27598 8.593307L18.556567 127.74187c-3.8038658 16.6011-5.176314 18.34747-5.176314 18.34747s8.8761249-1.41546 21.609763-1.41546c15.309208 0 25.481219 1.82677 32.870834 1.82677 3.536704 0 7.294278-.50658 10.570289-2.46661 3.551107-2.12461 6.756796-6.15263 5.480772-13.50955-2.908635 2.35402-7.501023 3.37281-12.190089 3.37281-8.960167 0-17.608877-1.20653-26.569044-1.20653-3.168242 0-5.058185.0854-8.102612.43352l17.671695-75.012918c.875648-3.716855-1.156935-6.438027-4.839336-6.462284zm47.63824 14.373988c-12.288635 0-23.294651 12.756225-27.431325 30.865921-1.346397 5.894191-1.930524 15.185541-.303624 19.945741 2.263636 6.62335 7.261909 9.38819 13.14235 9.44598 6.100704.0599 10.009939-1.84694 12.860937-4.25291 2.875306-2.42637 4.075753-4.88331 4.920574-6.08754 1.229227 7.17195 5.719026 10.28395 11.599467 10.34176 6.100679.0599 8.871602-1.73207 11.722675-4.13801 2.50649-2.11516 3.89367-4.6099 4.755799-5.92039 1.462732 8.04788 6.881445 10.00107 12.713445 10.0584 6.10071.0599 10.04001-2.903 12.09033-4.5624 2.14038-1.73226 3.24271-3.65324 4.08755-4.85747l-2.88081 12.22859s-10.38298 3.32946-17.7452 6.69995c-9.47079 4.33576-18.498828 9.89322-20.051793 16.48539-1.131868 4.80455 1.141243 12.34744 16.730043 12.34744 8.89003 0 16.81652-3.00824 23.12124-8.56851 5.31188-4.68467 10.95717-13.5429 13.38662-23.85523l15.23873-64.685528h-13.16744c-1.66796 0-3.43662.559162-4.09918 3.371525l-7.12505 30.244373c-1.38597 5.88322-3.89976 9.5964-6.07678 11.52217-2.37054 2.09694-4.14789 2.2368-5.7775 2.2368-1.51579 0-2.75833-.43148-3.60593-1.65965-.84766-1.22816-1.16182-3.84273-.5502-6.43877l9.2525-39.275134h-13.05664c-1.66796 0-3.57764.557848-4.2402 3.370211l-8.310923 35.278143c-.657027 2.78894-2.248981 4.99441-3.695364 6.46621-1.721429 1.75165-3.517374 2.25899-4.923782 2.25899-3.031566 0-5.15711-1.72684-3.656047-8.09842l9.252497-39.275134H98.416981c-1.667961 0-3.436313.557848-4.098873 3.370211l-.745668 3.165184s-1.162367-8.027893-11.61051-8.027893zm113.719538.124068c-13.64092 0-20.23625 7.679569-21.53529 13.193543-1.21035 5.137704-.75103 7.67866.3678 10.92675 1.11878 3.248064 2.9754 4.922493 5.66208 8.257733 1.50715 1.870938 11.97423 10.060638 10.85257 14.821818-.37677 1.59941-.77075 2.40447-2.29114 3.38852-.77048.4987-2.47213 1.01589-3.98039 1.01589-5.8149 0-8.54713-3.70709-13.27476-3.70709-5.42445 0-7.62921 6.43877-7.62921 6.43877s1.51236 1.56272 4.63962 2.86489c3.91674 1.6309 7.54789 2.86487 13.33085 2.86487 4.07449 0 8.40934-.26774 13.42323-2.74866 2.17416-1.07582 4.18514-2.5403 5.83572-4.51276 2.24478-2.68259 2.94123-4.45344 3.67348-7.56175 1.37558-5.83907-.72866-12.25063-8.19848-18.852809-5.80984-5.134924-9.76466-9.389274-8.75221-13.687135.71247-3.024136 3.41711-4.286869 5.52795-4.286869 4.60434 0 7.00533 2.751289 10.99937 2.751289 5.70417 0 7.66274-4.325454 8.30984-7.072094 0 0-1.60952-1.023746-4.55664-2.047466-4.55453-1.582074-7.0544-2.04744-12.40439-2.04744zM84.543745 75.108688c4.329699 0 6.855772 5.119586 3.388202 19.838654C84.10107 111.20876 79.070352 114.786 74.992754 114.786c-4.32975-.00003-7.74509-2.90528-3.440457-19.838658 2.99432-11.779226 8.497101-19.838679 12.991448-19.838654zm53.065573 60.554032-.53524 2.27205c-.68042 2.8882-2.14338 8.67775-4.53654 12.4336-2.08812 3.27705-5.88764 6.45186-10.99985 6.45186-2.41217 0-4.19795-.67259-5.288912-1.75498-1.09096-1.08237-1.370528-2.95119-1.072488-4.21635 1.003151-4.25806 6.00911-7.39864 11.90539-10.39528 5.36343-2.72582 10.52764-4.7909 10.52764-4.7909z"/>
    <path fill="#fbf1e9" d="M179.745988 49.392706c-2.07852 0-4.79125 1.259749-5.52408 4.370432-.99128 4.207722 1.81007 6.999443 1.06238 10.173294-.21832.926867-.64101 1.080094-.72679 1.444185-.0773.328336.69364.629383 1.39127.629383.091 0 .18168-.0051.27247-.01011-.6711-.02527-1.372-.306504-1.29811-.620236.0857-.364091.5084-.517318.72677-1.444184.74768-3.173852-2.05366-5.965578-1.06239-10.173299.70863-3.007977 3.26699-4.281536 5.31464-4.362596-.0531-.0012-.10209-.0078-.15616-.0078zM34.32369 51.54593s.859628 3.637229-.27598 8.593307L18.556567 127.74187c-3.8038658 16.60107-5.176314 18.34747-5.176314 18.34747s.3305348-.0457.3997194-.0561c.1720772-.26597 1.5872035-2.77628 5.1422017-18.2913L34.413317 60.139287c1.134421-4.95092.278482-8.583136.276688-8.590691zm47.63824 14.373988c-12.288635 0-23.294651 12.756251-27.431325 30.865921-1.346397 5.894191-1.930524 15.185571-.303624 19.945741 2.263636 6.62333 7.261909 9.38819 13.14235 9.44598.0988.00096.191534-.003.289196-.003-5.847061-.0811-10.812158-2.84895-13.065914-9.44337-1.626925-4.76017-1.042798-14.05156.303624-19.94572 4.118734-18.031263 15.047859-30.750824 27.272085-30.860716-.06999-.000732-.135691-.0051-.206442-.0051zm113.719538.124068c-13.64089 0-20.23625 7.679569-21.53529 13.193543-1.21035 5.137679-.75105 7.67866.3678 10.92675 1.11878 3.248064 2.9754 4.922519 5.66208 8.257733 1.50715 1.870938 11.97423 10.060638 10.85257 14.821818-.37677 1.59941-.77075 2.40447-2.29117 3.38852-.74031.47916-2.33886.96993-3.80093 1.00805.0634.00091.12204.008.18623.008 1.50826 0 3.20988-.5172 3.98036-1.01589 1.52042-.98408 1.91442-1.78911 2.2912-3.38852 1.12166-4.76118-9.34543-12.95088-10.85258-14.821846-2.68668-3.335214-4.54329-5.009644-5.66207-8.257708-1.11886-3.24809-1.57816-5.789071-.36781-10.926749 1.29409-5.493154 7.84677-13.133304 21.38321-13.190942-.0748-.000202-.13772-.0025-.21352-.0025zm-38.92994 1.367141c-1.66797 0-3.43662.559137-4.09918 3.3715l-7.12506 30.244393c-1.38596 5.88322-3.89976 9.5964-6.07677 11.52217-2.24936 1.98976-3.96281 2.2148-5.52454 2.23289.0382.00056.0743.005.1127.005 1.6296 0 3.40695-.13998 5.77749-2.2368 2.17702-1.92577 4.69079-5.63895 6.07675-11.52217l7.12506-30.244396c.66256-2.812362 2.43124-3.3715 4.09918-3.3715zm-58.334547.0013c-1.667961 0-3.436313.557823-4.098873 3.370186l-.565126 2.398721c.140745.472365.185217.766488.185217.766488l.745668-3.165209c.66256-2.812363 2.430937-3.370186 4.098898-3.370186zm27.295937 0c-1.66796 0-3.57733.557823-4.23989 3.370186L113.1621 106.0608c-.657026 2.78894-2.249713 4.99441-3.696096 6.46618-1.656313 1.6854-3.377514 2.21323-4.758478 2.25118.06747.002.132406.008.200631.008 1.406409 0 3.202101-.50736 4.92353-2.25901 1.446383-1.47178 3.039095-3.67725 3.696121-6.46618l8.31092-35.278176c.66256-2.812362 2.57194-3.370185 4.2399-3.370185zm67.98598 7.047256c-.0614 0-.12458.0051-.18699.0076 4.48583.07126 6.87983 2.744745 10.82072 2.744745.0596 0 .1127-.0076.17158-.0076-3.87679-.08819-6.27738-2.74343-10.80534-2.74343zm-108.789546.649005c-.05028 0-.101326.0051-.151862.0076 4.197116.169298 6.58434 5.357362 3.174609 19.830821-3.780644 16.048081-8.728027 19.735331-12.77644 19.829511.06822.001.134175.0101.202905.0101 4.077597 0 9.108315-3.57723 12.939193-19.838651 3.467569-14.719042.941497-19.838654-3.388203-19.838654zm86.572986 38.832462c-5.42445 0-7.62921 6.43877-7.62921 6.43877s1.51236 1.56272 4.63959 2.86489c3.91677 1.6309 7.54792 2.86487 13.33088 2.86487.0667 0 .13493-.002.20164-.003-5.686-.0227-9.28805-1.24714-13.16691-2.86227-3.12723-1.30218-4.63959-2.86487-4.63959-2.86487s2.14988-6.26753 7.42102-6.43096c-.0533-.00094-.1036-.008-.15742-.008zm-85.965864 1.89598c-.08111.11573-.187238.29198-.276183.42961 1.335178 6.85936 5.751295 9.85553 11.510043 9.91213.103347.001.198104-.003.299606-.003-5.847617-.0806-10.308863-3.19442-11.533466-10.33911zm28.077967.28336c-.07757.11775-.184711.28864-.271028.42438 1.577778 7.68023 6.894385 9.57775 12.618845 9.634.0745.00073.14529-.005.21933-.005-5.77578-.0887-11.116721-2.07304-12.567122-10.05315zm28.891307.63853c-.17031.24308-.3624.53256-.5603.82655l-2.68613 11.40202s-10.38297 3.32948-17.7452 6.69995c-9.470785 4.33576-18.498823 9.89325-20.051788 16.48542-1.131868 4.80452 1.141269 12.34743 16.730048 12.34743.0521 0 .10309-.003.15489-.005-15.393981-.0692-17.646044-7.56126-16.519406-12.34352 1.552965-6.59215 10.581003-12.14963 20.051766-16.48542 7.36223-3.37047 17.7452-6.69992 17.7452-6.69992zm-58.573837 13.76549c-2.881295 2.33194-7.415465 3.34992-12.058567 3.3689.07833.00018.155653.005.233984.005 4.51762 0 8.940913-.94912 11.859757-3.12341-.01516-.0846-.02022-.16399-.03538-.2494zm-38.759133 2.16628c-3.02727 0-4.91269.0851-7.72806.39565l-.01011.0379c2.961067-.33857 4.849115-.42622 7.864331-.4309-.0427-.00007-.08465-.003-.127352-.003zm92.82217 2.97193s-.27869.11472-.4047.16576l-.49617 2.10622c-.68042 2.88819-2.14338 8.67777-4.53654 12.4336-2.06389 3.23901-5.80201 6.37287-10.82464 6.44531.0647.00099.12482.008.19052.008 5.11221 0 8.91175-3.17479 10.99988-6.45183 2.39316-3.75586 3.85612-9.54543 4.53654-12.4336zm-102.619325 9.01119c-.06545 0-.1271.001-.192292.001 15.210738.0152 25.336381 1.82548 32.697494 1.82548.05205 0 .105116-.002.157421-.003-7.372584-.0328-17.493755-1.82417-32.662522-1.82417z"/>
  </g>
</svg>
